<?xml version="1.0" encoding="UTF-8"?>
<svg version="1.1" xmlns="http://www.w3.org/2000/svg" width="1320" height="1000">
<path d="M0 0 C435.6 0 871.2 0 1320 0 C1320 330 1320 660 1320 1000 C884.4 1000 448.8 1000 0 1000 C0 670 0 340 0 0 Z " fill="#00898E" transform="translate(0,0)"/>
<path d="M0 0 C4.95 0 9.9 0 15 0 C15 4.29 15 8.58 15 13 C13.02 13 11.04 13 9 13 C9.05179764 16.43873816 9.14685105 19.87494908 9.25 23.3125 C9.26417969 24.28896484 9.27835937 25.26542969 9.29296875 26.27148438 C9.32519531 27.20927734 9.35742188 28.14707031 9.390625 29.11328125 C9.4220459 30.40939331 9.4220459 30.40939331 9.45410156 31.73168945 C9.81295106 34.15689181 9.81295106 34.15689181 11.91088867 35.73681641 C13.92690632 36.95580382 15.93553067 38.05024292 18.0625 39.0625 C20.5598824 40.25606663 22.6759501 41.4506334 25 43 C25 42.01 25 41.02 25 40 C26.98 40.495 26.98 40.495 29 41 C29 42.65 29 44.3 29 46 C29.66 46 30.32 46 31 46 C31.66 48.31 32.32 50.62 33 53 C31.5 51.6875 31.5 51.6875 30 50 C30 49.01 30 48.02 30 47 C29.34 48.32 28.68 49.64 28 51 C27.41605469 50.22076172 27.41605469 50.22076172 26.8203125 49.42578125 C22.26928128 43.75272159 17.67787562 40.79476485 11 38 C11 38.99 11 39.98 11 41 C11.72832031 41.09667969 12.45664062 41.19335938 13.20703125 41.29296875 C16.38648489 42.09783743 18.12851788 43.28356172 20.6875 45.3125 C21.45449219 45.90675781 22.22148437 46.50101562 23.01171875 47.11328125 C25.86606132 49.82182243 26.94644408 51.82176982 27.125 55.75 C27.08375 56.4925 27.0425 57.235 27 58 C27.99 58 28.98 58 30 58 C29.505 55.03 29.505 55.03 29 52 C31.78633754 53.39316877 31.93492694 55.15980516 33 58 C34.71443219 59.71443219 37.00445241 59.23052967 39.34765625 59.31640625 C40.42724609 59.35830078 41.50683594 59.40019531 42.61914062 59.44335938 C43.75544922 59.48267578 44.89175781 59.52199219 46.0625 59.5625 C47.20267578 59.60568359 48.34285156 59.64886719 49.51757812 59.69335938 C52.34492195 59.79982839 55.17235738 59.90184207 58 60 C58 58.35 58 56.7 58 55 C61.96 55 65.92 55 70 55 C70 59.29 70 63.58 70 68 C66.04 68 62.08 68 58 68 C57.67 66.68 57.34 65.36 57 64 C53.25040783 63.85471895 49.50153895 63.76593719 45.75 63.6875 C44.68652344 63.64560547 43.62304688 63.60371094 42.52734375 63.56054688 C36.29828441 63.28090029 36.29828441 63.28090029 31.265625 66.51953125 C30.84796875 67.33808594 30.4303125 68.15664063 30 69 C30 68.01 30 67.02 30 66 C27.85715831 67.83672145 26.8616015 69.28937869 25.625 71.875 C22.68834453 77.52241436 18.81515148 80.54471382 13 83 C12.34 83 11.68 83 11 83 C11 83.66 11 84.32 11 85 C17.70112792 82.25531144 22.9612567 79.30394032 28 74 C27.505 75.98 27.505 75.98 27 78 C27.99 77.67 28.98 77.34 30 77 C29.34 78.65 28.68 80.3 28 82 C27.236875 81.979375 26.47375 81.95875 25.6875 81.9375 C22.89814214 81.87057159 22.89814214 81.87057159 20 83 C20.33 84.65 20.66 86.3 21 88 C19.68 88 18.36 88 17 88 C16.67 87.34 16.34 86.68 16 86 C14.02 86.99 12.04 87.98 10 89 C9.67 95.93 9.34 102.86 9 110 C10.98 110 12.96 110 15 110 C15 114.29 15 118.58 15 123 C10.05 123 5.1 123 0 123 C0 118.71 0 114.42 0 110 C1.65 110 3.3 110 5 110 C5.00626726 106.58165767 4.94666505 103.16752695 4.875 99.75 C4.87757813 98.78191406 4.88015625 97.81382812 4.8828125 96.81640625 C4.91736074 91.72659339 4.91736074 91.72659339 2.60644531 87.43554688 C0.8005921 86.16620565 0.8005921 86.16620565 -2 85 C-1.34 84.67 -0.68 84.34 0 84 C0.99 84.33 1.98 84.66 3 85 C1.04065181 82.69488449 -0.65221016 81.64973899 -3.375 80.1875 C-8.01620454 77.6166848 -11.15220025 74.33144933 -13 69.25 C-13.82416506 66.74568388 -13.82416506 66.74568388 -16.5625 65.75 C-17.7690625 65.37875 -17.7690625 65.37875 -19 65 C-19.33 64.67 -19.66 64.34 -20 64 C-21.70772358 63.91286169 -23.41898649 63.89299993 -25.12890625 63.90234375 C-26.16337891 63.90556641 -27.19785156 63.90878906 -28.26367188 63.91210938 C-29.35228516 63.92048828 -30.44089844 63.92886719 -31.5625 63.9375 C-32.65498047 63.94201172 -33.74746094 63.94652344 -34.87304688 63.95117188 C-37.58208495 63.96300174 -40.29101599 63.97948457 -43 64 C-43.33 65.32 -43.66 66.64 -44 68 C-47.63 68 -51.26 68 -55 68 C-55.02686553 66.02090602 -55.04633375 64.04171029 -55.0625 62.0625 C-55.07410156 60.96035156 -55.08570313 59.85820313 -55.09765625 58.72265625 C-55 56 -55 56 -54 55 C-52.31391034 54.92794489 -50.62499341 54.91613932 -48.9375 54.9375 C-48.01839844 54.94652344 -47.09929687 54.95554687 -46.15234375 54.96484375 C-45.44207031 54.97644531 -44.73179687 54.98804688 -44 55 C-43.67 56.32 -43.34 57.64 -43 59 C-35.08 59 -27.16 59 -19 59 C-18.34 57.35 -17.68 55.7 -17 54 C-17.66 54 -18.32 54 -19 54 C-19 53.01 -19 52.02 -19 51 C-17.68 51.66 -16.36 52.32 -15 53 C-15 54.65 -15 56.3 -15 58 C-14.34 58 -13.68 58 -13 58 C-12.814375 57.14728516 -12.814375 57.14728516 -12.625 56.27734375 C-10.85278183 49.64260197 -7.78678225 45.73197473 -2 42 C0.25390625 41.3125 0.25390625 41.3125 2 41 C2 40.34 2 39.68 2 39 C0.35 39.66 -1.3 40.32 -3 41 C-3 40.01 -3 39.02 -3 38 C-3.99 37.67 -4.98 37.34 -6 37 C-5.36191406 36.95101562 -4.72382813 36.90203125 -4.06640625 36.8515625 C-3.24011719 36.77679688 -2.41382813 36.70203125 -1.5625 36.625 C-0.73878906 36.55539062 0.08492188 36.48578125 0.93359375 36.4140625 C1.95646484 36.20910156 1.95646484 36.20910156 3 36 C4.20270964 33.59458071 4.20316663 31.89633409 4.31640625 29.2109375 C4.35830078 28.26992188 4.40019531 27.32890625 4.44335938 26.359375 C4.48267578 25.37453125 4.52199219 24.3896875 4.5625 23.375 C4.62727539 21.88613281 4.62727539 21.88613281 4.69335938 20.3671875 C4.79961069 17.91160162 4.90164964 15.45591297 5 13 C3.35 13 1.7 13 0 13 C0 8.71 0 4.42 0 0 Z " fill="#B2B073" transform="translate(301,462)"/>
<path d="M0 0 C5.51365511 4.20896525 11.06586354 9.80063827 12.41015625 16.83984375 C12.90583006 24.13104556 13.08844348 30.91471064 10.41015625 37.83984375 C9.75015625 37.83984375 9.09015625 37.83984375 8.41015625 37.83984375 C8.24515625 38.52046875 8.08015625 39.20109375 7.91015625 39.90234375 C5.16135985 45.28540336 0.23058481 49.30988531 -5.27734375 51.77734375 C-12.55415778 54.0881269 -21.74390851 54.1280231 -28.75390625 50.93359375 C-36.1950177 46.50059118 -40.55617807 40.93829891 -43.58984375 32.83984375 C-45.82346213 23.47856419 -44.34462239 16.04331452 -39.90234375 7.65234375 C-29.75618454 -4.68757961 -13.9898877 -8.75655711 0 0 Z " fill="#02898E" transform="translate(858.58984375,500.16015625)"/>
<path d="M0 0 C27.73770492 0 27.73770492 0 37.72265625 9.66796875 C43.83401901 16.22980051 45.71013933 22.98074661 45.484375 31.8984375 C44.33248353 39.27425868 39.88561795 46.4520225 34 51 C22.43966523 57.80019693 14.36628241 57 0 57 C0 38.19 0 19.38 0 0 Z " fill="#01888E" transform="translate(460,496)"/>
<path d="M0 0 C4.95 0 9.9 0 15 0 C15 4.29 15 8.58 15 13 C13.02 13 11.04 13 9 13 C9.05179764 16.43873816 9.14685105 19.87494908 9.25 23.3125 C9.26417969 24.28896484 9.27835937 25.26542969 9.29296875 26.27148438 C9.32519531 27.20927734 9.35742188 28.14707031 9.390625 29.11328125 C9.41157227 29.97735596 9.43251953 30.84143066 9.45410156 31.73168945 C9.81295106 34.15689181 9.81295106 34.15689181 11.91088867 35.73681641 C13.92690632 36.95580382 15.93553067 38.05024292 18.0625 39.0625 C20.5598824 40.25606663 22.6759501 41.4506334 25 43 C25 42.01 25 41.02 25 40 C26.32 40.33 27.64 40.66 29 41 C29 42.65 29 44.3 29 46 C29.66 46 30.32 46 31 46 C31.66 48.31 32.32 50.62 33 53 C31.5 51.6875 31.5 51.6875 30 50 C30 49.01 30 48.02 30 47 C29.34 48.32 28.68 49.64 28 51 C27.41605469 50.22076172 27.41605469 50.22076172 26.8203125 49.42578125 C22.26928128 43.75272159 17.67787562 40.79476485 11 38 C11 38.99 11 39.98 11 41 C11.721875 41.061875 12.44375 41.12375 13.1875 41.1875 C16.84657625 42.24456647 18.49211602 44.20550071 21 47 C19.68 47.66 18.36 48.32 17 49 C17.680625 49.86625 17.680625 49.86625 18.375 50.75 C22.20800775 56.0572415 22.83852373 60.52700583 22 67 C19.38679161 72.13308791 16.46062759 75.1797908 11 77 C4.56418849 77.53631763 1.25466526 76.81220813 -4 73 C-7.71570468 68.78886803 -8.13999542 63.45107158 -8 58 C-6.42228796 53.26686388 -4.28309503 50.55163108 0 48 C3.30453876 47.10797727 6.61551907 46.49945738 10 46 C8.41590006 46.11487748 6.83271037 46.24234508 5.25 46.375 C3.92742187 46.47941406 3.92742187 46.47941406 2.578125 46.5859375 C0.00933618 46.99850055 -1.75841015 47.71160957 -4 49 C-4 45 -4 45 -2 42 C0.125 41.3125 0.125 41.3125 2 41 C2 40.34 2 39.68 2 39 C0.35 39.66 -1.3 40.32 -3 41 C-3 40.01 -3 39.02 -3 38 C-3.99 37.67 -4.98 37.34 -6 37 C-5.36191406 36.95101562 -4.72382813 36.90203125 -4.06640625 36.8515625 C-3.24011719 36.77679688 -2.41382813 36.70203125 -1.5625 36.625 C-0.32693359 36.52058594 -0.32693359 36.52058594 0.93359375 36.4140625 C1.95646484 36.20910156 1.95646484 36.20910156 3 36 C4.20270964 33.59458071 4.20316663 31.89633409 4.31640625 29.2109375 C4.35830078 28.26992188 4.40019531 27.32890625 4.44335938 26.359375 C4.48267578 25.37453125 4.52199219 24.3896875 4.5625 23.375 C4.60568359 22.38242187 4.64886719 21.38984375 4.69335938 20.3671875 C4.79961069 17.91160162 4.90164964 15.45591297 5 13 C3.35 13 1.7 13 0 13 C0 8.71 0 4.42 0 0 Z " fill="#D9D78F" transform="translate(301,462)"/>
<path d="M0 0 C2.625 -0.1875 2.625 -0.1875 5 0 C10.07133284 9.88185427 14.754021 19.89918457 19.25415039 30.05249023 C20.32313014 32.46145522 21.40057779 34.86651668 22.47851562 37.27148438 C23.1697809 38.82529401 23.86055429 40.3793226 24.55078125 41.93359375 C25.02732903 42.99470619 25.02732903 42.99470619 25.51350403 44.07725525 C27.38685434 48.32666256 28.82331312 52.5060303 30 57 C27.69 57 25.38 57 23 57 C22.16235732 55.04350603 21.33000941 53.08474444 20.5 51.125 C20.0359375 50.03445313 19.571875 48.94390625 19.09375 47.8203125 C18 45 18 45 18 43 C7.77 43 -2.46 43 -13 43 C-13.33 44.98 -13.66 46.96 -14 49 C-14.86173773 51.42000959 -15.92410684 53.66110182 -17 56 C-19.31 56 -21.62 56 -24 56 C-23.38392958 52.20774428 -22.26477536 49.09337334 -20.625 45.625 C-19.94824219 44.17480469 -19.94824219 44.17480469 -19.2578125 42.6953125 C-18.84273437 41.80585937 -18.42765625 40.91640625 -18 40 C-17.505 38.845 -17.01 37.69 -16.5 36.5 C-15.20547355 33.47943828 -13.86465014 30.48923364 -12.5 27.5 C-10.16343576 22.37485759 -7.91052458 17.22540352 -5.77734375 12.01171875 C-5.33519531 10.93535156 -4.89304687 9.85898437 -4.4375 8.75 C-4.02371094 7.73421875 -3.60992188 6.7184375 -3.18359375 5.671875 C-2 3 -2 3 0 0 Z " fill="#C8B671" transform="translate(639,496)"/>
<path d="M0 0 C5 0 5 0 7.25390625 2.0625 C8.01574219 3.031875 8.77757812 4.00125 9.5625 5 C9.98595703 5.53181885 10.40941406 6.0636377 10.84570312 6.61157227 C12.25144479 8.39246742 13.62856896 10.19256759 15 12 C15.48452637 12.63663574 15.96905273 13.27327148 16.46826172 13.92919922 C19.00465135 17.27326137 21.51905511 20.632924 24.01953125 24.00390625 C27.65506472 28.8983961 31.39326625 33.71128006 35.13671875 38.5234375 C37 41 37 41 38 43 C38.33 28.81 38.66 14.62 39 0 C41.31 0 43.62 0 46 0 C46 18.48 46 36.96 46 56 C40 56 40 56 37.46484375 53.5 C36.60393943 52.34688537 35.76263921 51.17897196 34.9375 50 C33.98370586 48.71080573 33.02789251 47.42310347 32.0703125 46.13671875 C31.57305664 45.45915527 31.07580078 44.7815918 30.56347656 44.08349609 C27.44200739 39.92381185 24.08433692 35.95135828 20.76733398 31.94726562 C16.27554215 26.46789637 12.12723002 20.75728476 8 15 C7.97494385 16.2367749 7.9498877 17.4735498 7.92407227 18.74780273 C7.83017747 23.31936713 7.72991371 27.89077318 7.62768555 32.4621582 C7.58426856 34.44389146 7.54259863 36.42566378 7.50268555 38.4074707 C7.44514617 41.2496317 7.38140555 44.09159483 7.31640625 46.93359375 C7.29969376 47.82525742 7.28298126 48.71692108 7.26576233 49.63560486 C7.11387171 55.88612829 7.11387171 55.88612829 6 57 C4.02 57 2.04 57 0 57 C0 38.19 0 19.38 0 0 Z " fill="#B69F5E" transform="translate(935,496)"/>
<path d="M0 0 C1.65 0 3.3 0 5 0 C7.14226018 2.19074132 8.88108791 4.24389663 10.6875 6.6875 C11.46697998 7.70275757 11.46697998 7.70275757 12.26220703 8.73852539 C13.333272 10.13639746 14.39770316 11.53937648 15.45556641 12.94726562 C16.88539683 14.84767887 18.3334432 16.73172076 19.79296875 18.609375 C26.02188729 26.62774671 32.09814466 34.73740253 38 43 C38.33 29.14 38.66 15.28 39 1 C41.31 1 43.62 1 46 1 C46 19.15 46 37.3 46 56 C39 56 39 56 37.24121094 54.55541992 C36.61907715 53.55925659 36.61907715 53.55925659 35.984375 52.54296875 C35.49775391 51.80997559 35.01113281 51.07698242 34.50976562 50.32177734 C34.01154297 49.55559082 33.51332031 48.7894043 33 48 C31.91574718 46.56817157 30.81654173 45.14755057 29.703125 43.73828125 C28.86044067 42.65728149 28.86044067 42.65728149 28.00073242 41.55444336 C27.42299072 40.81460205 26.84524902 40.07476074 26.25 39.3125 C21.06850794 32.66653833 15.91450871 26.00085069 10.79296875 19.30859375 C9.19991086 17.15833336 9.19991086 17.15833336 8 16 C7.67 29.2 7.34 42.4 7 56 C4.69 56 2.38 56 0 56 C0 37.52 0 19.04 0 0 Z " fill="#C1B370" transform="translate(880,496)"/>
<path d="M0 0 C5.51365511 4.20896525 11.06586354 9.80063827 12.41015625 16.83984375 C12.90583006 24.13104556 13.08844348 30.91471064 10.41015625 37.83984375 C9.75015625 37.83984375 9.09015625 37.83984375 8.41015625 37.83984375 C8.24515625 38.52046875 8.08015625 39.20109375 7.91015625 39.90234375 C5.16135985 45.28540336 0.23058481 49.30988531 -5.27734375 51.77734375 C-12.55415778 54.0881269 -21.74390851 54.1280231 -28.75390625 50.93359375 C-36.1950177 46.50059118 -40.55617807 40.93829891 -43.58984375 32.83984375 C-45.82346213 23.47856419 -44.34462239 16.04331452 -39.90234375 7.65234375 C-29.75618454 -4.68757961 -13.9898877 -8.75655711 0 0 Z M-33.3359375 11.0625 C-37.49072552 16.95168551 -38.53240109 21.73853109 -37.58984375 28.83984375 C-35.37176889 37.0652047 -30.62553365 41.20787207 -23.71484375 45.71484375 C-17.40869203 47.98505837 -12.41412587 47.51696794 -6.33984375 44.71484375 C-0.98618813 41.76368266 1.96295836 38.73423952 4.72265625 33.21484375 C6.22727346 25.82854106 6.68325366 18.25740276 2.73828125 11.58984375 C-1.38834668 6.15240459 -5.77311697 3.03576073 -12.58984375 1.83984375 C-21.60755243 0.98101435 -27.77282475 3.89260264 -33.3359375 11.0625 Z " fill="#D6CB83" transform="translate(858.58984375,500.16015625)"/>
<path d="M0 0 C27.73770492 0 27.73770492 0 37.72265625 9.66796875 C43.83401901 16.22980051 45.71013933 22.98074661 45.484375 31.8984375 C44.33248353 39.27425868 39.88561795 46.4520225 34 51 C22.43966523 57.80019693 14.36628241 57 0 57 C0 38.19 0 19.38 0 0 Z M7 7 C7 21.19 7 35.38 7 50 C21.00871642 50.49085363 21.00871642 50.49085363 31.6875 45.3125 C36.45756383 40.54243617 38.25057001 35.86615375 38.5625 29.125 C38.29848332 21.675958 35.77031936 15.77031936 30.5 10.5 C22.05160611 5.43096367 18.55619821 7 7 7 Z " fill="#9A773D" transform="translate(460,496)"/>
<path d="M0 0 C1.34888732 0.00015905 2.69778075 0.00584927 4.04663086 0.01586914 C5.10991859 0.01799156 5.10991859 0.01799156 6.19468689 0.02015686 C8.46699173 0.02577096 10.73919936 0.03832576 13.01147461 0.05102539 C14.54858257 0.05603858 16.08569206 0.0606018 17.62280273 0.06469727 C21.39823103 0.07574497 25.17358632 0.09301898 28.94897461 0.11352539 C28.94897461 2.42352539 28.94897461 4.73352539 28.94897461 7.11352539 C20.36897461 7.11352539 11.78897461 7.11352539 2.94897461 7.11352539 C2.94897461 13.05352539 2.94897461 18.99352539 2.94897461 25.11352539 C9.54897461 25.11352539 16.14897461 25.11352539 22.94897461 25.11352539 C22.94897461 27.09352539 22.94897461 29.07352539 22.94897461 31.11352539 C16.34897461 31.11352539 9.74897461 31.11352539 2.94897461 31.11352539 C2.94897461 37.38352539 2.94897461 43.65352539 2.94897461 50.11352539 C11.52897461 50.11352539 20.10897461 50.11352539 28.94897461 50.11352539 C28.94897461 52.42352539 28.94897461 54.73352539 28.94897461 57.11352539 C18.05897461 57.11352539 7.16897461 57.11352539 -4.05102539 57.11352539 C-4.07197143 49.83594078 -4.09200945 42.55846476 -4.10277557 35.28087616 C-4.10806508 31.89215308 -4.1151382 28.50345483 -4.12646484 25.11474609 C-4.13936806 21.23022762 -4.14425463 17.34571942 -4.14868164 13.46118164 C-4.15384293 12.24141129 -4.15900421 11.02164093 -4.1643219 9.76490784 C-4.16439743 8.64382126 -4.16447296 7.52273468 -4.16455078 6.36767578 C-4.16677139 5.37506241 -4.168992 4.38244904 -4.17127991 3.35975647 C-3.9844499 -0.13003644 -3.56836477 0.13277504 0 0 Z " fill="#A58E52" transform="translate(994.051025390625,495.886474609375)"/>
<path d="M0 0 C1.34888732 0.00015905 2.69778075 0.00584927 4.04663086 0.01586914 C5.10991859 0.01799156 5.10991859 0.01799156 6.19468689 0.02015686 C8.46699173 0.02577096 10.73919936 0.03832576 13.01147461 0.05102539 C14.54858257 0.05603858 16.08569206 0.0606018 17.62280273 0.06469727 C21.39823103 0.07574497 25.17358632 0.09301898 28.94897461 0.11352539 C28.94897461 2.42352539 28.94897461 4.73352539 28.94897461 7.11352539 C20.36897461 7.11352539 11.78897461 7.11352539 2.94897461 7.11352539 C2.94897461 13.05352539 2.94897461 18.99352539 2.94897461 25.11352539 C9.54897461 25.11352539 16.14897461 25.11352539 22.94897461 25.11352539 C22.94897461 27.09352539 22.94897461 29.07352539 22.94897461 31.11352539 C16.34897461 31.11352539 9.74897461 31.11352539 2.94897461 31.11352539 C2.94897461 37.38352539 2.94897461 43.65352539 2.94897461 50.11352539 C11.52897461 50.11352539 20.10897461 50.11352539 28.94897461 50.11352539 C28.94897461 52.42352539 28.94897461 54.73352539 28.94897461 57.11352539 C18.05897461 57.11352539 7.16897461 57.11352539 -4.05102539 57.11352539 C-4.07197143 49.83594078 -4.09200945 42.55846476 -4.10277557 35.28087616 C-4.10806508 31.89215308 -4.1151382 28.50345483 -4.12646484 25.11474609 C-4.13936806 21.23022762 -4.14425463 17.34571942 -4.14868164 13.46118164 C-4.15384293 12.24141129 -4.15900421 11.02164093 -4.1643219 9.76490784 C-4.16439743 8.64382126 -4.16447296 7.52273468 -4.16455078 6.36767578 C-4.16677139 5.37506241 -4.168992 4.38244904 -4.17127991 3.35975647 C-3.9844499 -0.13003644 -3.56836477 0.13277504 0 0 Z " fill="#886531" transform="translate(422.051025390625,495.886474609375)"/>
<path d="M0 0 C1.99954746 -0.04254356 4.00041636 -0.04080783 6 0 C8.12451709 2.12451709 7.18629123 6.90911771 7.2109375 9.85546875 C7.2390201 11.69336807 7.26768464 13.53125857 7.296875 15.36914062 C7.33805436 18.27449162 7.37492885 21.1796805 7.40136719 24.08520508 C7.42906124 26.88397586 7.47494984 29.68199111 7.5234375 32.48046875 C7.52669037 33.34318893 7.52994324 34.20590912 7.53329468 35.09477234 C7.63511541 40.11725791 8.20340211 43.6543271 11 48 C15.17226495 50.69970085 20.18710739 50.54254426 25 50 C28.76402384 48.60894771 29.72284768 47.52484373 31.60083008 43.96850586 C33.40756911 39.53811657 33.47565129 35.30107723 33.51171875 30.56640625 C33.52966995 29.68846909 33.54762115 28.81053192 33.56611633 27.9059906 C33.61993679 25.12487471 33.65402364 22.34392763 33.6875 19.5625 C33.72069808 17.66729436 33.75519003 15.77211092 33.79101562 13.87695312 C33.87564675 9.25142445 33.942592 4.62594338 34 0 C36.31 0 38.62 0 41 0 C41.07473651 5.37106359 41.12887661 10.74181753 41.16479492 16.11328125 C41.17978489 17.93657715 41.20018384 19.7598376 41.22631836 21.58300781 C41.53941494 44.0031789 41.53941494 44.0031789 36.2734375 51.4375 C31.4138719 55.43714247 27.32489185 57.5459052 21 58 C20.25621094 58.05414062 19.51242187 58.10828125 18.74609375 58.1640625 C12.67975766 58.058561 9.33446982 55.37856941 4.9453125 51.3984375 C0.00313617 45.3050715 -0.42557026 39.68710592 -0.29296875 32.12890625 C-0.28872391 31.206577 -0.28447906 30.28424774 -0.28010559 29.33396912 C-0.26341364 26.40983965 -0.22577938 23.48641851 -0.1875 20.5625 C-0.17244089 18.57097355 -0.15875464 16.57943621 -0.14648438 14.58789062 C-0.11354122 9.72499062 -0.06182499 4.8626151 0 0 Z " fill="#A48C50" transform="translate(513,496)"/>
<path d="M0 0 C5.259375 -0.020625 10.51875 -0.04125 15.9375 -0.0625 C17.599021 -0.071604 19.26054199 -0.08070801 20.97241211 -0.09008789 C22.26928955 -0.09258545 23.56616699 -0.09508301 24.90234375 -0.09765625 C25.93107605 -0.1053302 25.93107605 -0.1053302 26.98059082 -0.11315918 C28.65415231 -0.11347054 30.3275958 -0.06222837 32 0 C33 1 33 1 33 7 C24.42 7 15.84 7 7 7 C7 12.94 7 18.88 7 25 C13.6 25 20.2 25 27 25 C27 26.98 27 28.96 27 31 C20.07 31 13.14 31 6 31 C6 37.27 6 43.54 6 50 C14.91 50 23.82 50 33 50 C33 51.98 33 53.96 33 56 C22.11 56 11.22 56 0 56 C0 37.52 0 19.04 0 0 Z " fill="#DCD78E" transform="translate(720,496)"/>
<path d="M0 0 C1.671875 1.16796875 1.671875 1.16796875 3.671875 4.16796875 C2.681875 5.48796875 1.691875 6.80796875 0.671875 8.16796875 C-0.3490625 7.73484375 -0.3490625 7.73484375 -1.390625 7.29296875 C-8.46402315 4.58400776 -14.42552879 2.91356282 -21.828125 5.29296875 C-28.01140031 8.60543767 -32.77730401 12.04371751 -34.890625 18.96484375 C-36.21747358 25.64647412 -36.02224544 31.4301739 -32.59375 37.41796875 C-29.25753693 42.0310041 -24.63930744 45.18929294 -19.328125 47.16796875 C-12.9087049 48.04062735 -8.23097625 46.56912858 -2.328125 44.16796875 C-1.008125 44.16796875 0.311875 44.16796875 1.671875 44.16796875 C2.331875 45.48796875 2.991875 46.80796875 3.671875 48.16796875 C2.42631408 48.98725761 1.17520865 49.79812061 -0.078125 50.60546875 C-0.77421875 51.05792969 -1.4703125 51.51039063 -2.1875 51.9765625 C-8.43344171 55.45286217 -16.91286198 55.07384662 -23.74609375 53.671875 C-28.45027572 52.06135235 -31.82348681 49.58499099 -35.328125 46.16796875 C-35.328125 45.50796875 -35.328125 44.84796875 -35.328125 44.16796875 C-36.318125 43.83796875 -37.308125 43.50796875 -38.328125 43.16796875 C-42.8799619 35.61576612 -44.50140694 27.86980981 -43.328125 19.16796875 C-42.54973988 16.30209626 -41.57850615 13.87712791 -40.328125 11.16796875 C-39.668125 11.16796875 -39.008125 11.16796875 -38.328125 11.16796875 C-38.20824219 10.28818359 -38.20824219 10.28818359 -38.0859375 9.390625 C-36.28835747 4.11834131 -29.68930169 0.99535066 -25.140625 -1.76953125 C-16.6122235 -4.14629888 -7.98818557 -3.91901586 0 0 Z " fill="#B59E5E" transform="translate(605.328125,498.83203125)"/>
<path d="M0 0 C2.36579682 1.19812886 4.62789634 2.44566901 6.85546875 3.8828125 C6.85546875 6.8828125 6.85546875 6.8828125 4.85546875 9.8828125 C-1.14453125 7.8828125 -1.14453125 7.8828125 -4.01953125 6.7578125 C-11.50209858 4.66269365 -16.29384316 5.83889469 -23.0078125 9.4375 C-25.60930379 11.19719246 -26.84639952 13.04314935 -28.14453125 15.8828125 C-28.80453125 15.8828125 -29.46453125 15.8828125 -30.14453125 15.8828125 C-31.90232905 25.99014988 -32.20483078 34.09204835 -26.14453125 42.8828125 C-23.82448094 44.90923358 -23.82448094 44.90923358 -21.14453125 45.8828125 C-20.23703125 46.4396875 -19.32953125 46.9965625 -18.39453125 47.5703125 C-13.65873005 49.4828476 -9.06622932 49.82806776 -4.15234375 48.23828125 C-2.46114 47.50155515 -0.80092983 46.69477259 0.85546875 45.8828125 C3.10546875 45.0078125 3.10546875 45.0078125 4.85546875 44.8828125 C6.60546875 46.3203125 6.60546875 46.3203125 7.85546875 47.8828125 C6.88256299 50.34612708 6.19184552 51.65763466 3.96484375 53.1484375 C-4.62260974 56.73128233 -14.22657357 57.76783386 -23.08203125 54.3828125 C-30.84987601 50.26109895 -36.56505039 42.18052305 -39.14453125 33.8828125 C-40.22222573 25.57322085 -39.78300263 18.01656716 -35.14453125 10.8828125 C-26.93256671 0.49709264 -12.65518834 -4.49612903 0 0 Z " fill="#9D7B41" transform="translate(1070.14453125,497.1171875)"/>
<path d="M0 0 C1.41092226 0.80752307 2.81331101 1.63143811 4.1875 2.5 C4.1875 5.5 4.1875 5.5 2.1875 8.5 C1.5275 8.5 0.8675 8.5 0.1875 8.5 C0.1875 7.84 0.1875 7.18 0.1875 6.5 C-7.49454917 3.88483433 -14.42027277 3.37373264 -22.01953125 6.57421875 C-25.32360582 8.28024418 -28.1314371 10.13787421 -29.8125 13.5 C-30.4725 13.5 -31.1325 13.5 -31.8125 13.5 C-31.956875 14.44875 -32.10125 15.3975 -32.25 16.375 C-32.8125 19.5 -32.8125 19.5 -33.8125 21.5 C-34.38066416 28.46001099 -32.70647403 34.29481317 -29.1875 40.25 C-24.46351948 44.72534997 -19.49381709 47.77064665 -12.875 48.0625 C-7.39630146 47.79587574 -2.71737433 45.83764223 2.1875 43.5 C3.1775 44.49 4.1675 45.48 5.1875 46.5 C3.8281278 49.80133249 2.66791604 51.21980293 -0.5625 52.75 C-8.17146112 55.84267452 -17.20035514 55.96279644 -24.8125 52.8125 C-33.04566432 48.42147903 -37.86563696 42.73734318 -40.63671875 33.859375 C-42.44925295 25.77801233 -41.83095029 17.83877998 -37.8125 10.5 C-37.1525 10.5 -36.4925 10.5 -35.8125 10.5 C-35.57015625 9.74074219 -35.3278125 8.98148437 -35.078125 8.19921875 C-33.62661781 5.10356606 -32.41857745 4.12426341 -29.5625 2.3125 C-28.81484375 1.82394531 -28.0671875 1.33539063 -27.296875 0.83203125 C-18.66281158 -3.7972386 -8.81835419 -4.42799293 0 0 Z " fill="#E7E396" transform="translate(801.8125,498.5)"/>
<path d="M0 0 C2.5 0.25 2.5 0.25 4.5 2.25 C4.75 5.25 4.75 5.25 4.5 8.25 C3.84 8.91 3.18 9.57 2.5 10.25 C1.51 10.25 0.52 10.25 -0.5 10.25 C-1.16 12.56 -1.82 14.87 -2.5 17.25 C-1.18 17.58 0.14 17.91 1.5 18.25 C1.5 18.91 1.5 19.57 1.5 20.25 C2.07621094 20.32734375 2.65242188 20.4046875 3.24609375 20.484375 C6.25535016 21.50658342 7.50167588 23.10166133 9.5625 25.5 C10.23410156 26.26828125 10.90570313 27.0365625 11.59765625 27.828125 C16.5 34.06930185 16.5 34.06930185 16.5 37.25 C17.098125 36.92 17.69625 36.59 18.3125 36.25 C20.5 35.25 20.5 35.25 23.5 35.25 C23.83 33.93 24.16 32.61 24.5 31.25 C26.75 30.5625 26.75 30.5625 29.5 30.25 C31.8125 31.6875 31.8125 31.6875 33.5 33.25 C33.17 34.9 32.84 36.55 32.5 38.25 C31.84 38.25 31.18 38.25 30.5 38.25 C30.5 38.91 30.5 39.57 30.5 40.25 C28.85 40.25 27.2 40.25 25.5 40.25 C25.5 39.59 25.5 38.93 25.5 38.25 C23.19 38.91 20.88 39.57 18.5 40.25 C18.83 41.24 19.16 42.23 19.5 43.25 C19.53954234 45.58299825 19.54401732 47.91708189 19.5 50.25 C16.86 50.25 14.22 50.25 11.5 50.25 C11.25765625 49.46753906 11.0153125 48.68507813 10.765625 47.87890625 C10.43046875 46.86699219 10.0953125 45.85507812 9.75 44.8125 C9.42515625 43.80316406 9.1003125 42.79382813 8.765625 41.75390625 C7.76165285 39.07969396 7.76165285 39.07969396 5.359375 38.40234375 C4.74578125 38.35207031 4.1321875 38.30179687 3.5 38.25 C3.83 36.93 4.16 35.61 4.5 34.25 C-1.83111293 27.66308453 -7.66915369 24.52121597 -16.5 22.25 C-16.5 19.28 -16.5 16.31 -16.5 13.25 C-13.2 13.25 -9.9 13.25 -6.5 13.25 C-6.355625 12.363125 -6.21125 11.47625 -6.0625 10.5625 C-5.876875 9.469375 -5.69125 8.37625 -5.5 7.25 C-5.355625 6.3425 -5.21125 5.435 -5.0625 4.5 C-4.25146602 1.25586408 -3.34323639 0.33432364 0 0 Z " fill="#B1A264" transform="translate(329.5,468.75)"/>
<path d="M0 0 C2.97 0 5.94 0 9 0 C8.67 3.3 8.34 6.6 8 10 C12.06368679 10.77403558 15.86425173 11.0984702 20 11 C20 11.66 20 12.32 20 13 C20.66 13 21.32 13 22 13 C21.25 17.75 21.25 17.75 19 20 C16.5625 20.375 16.5625 20.375 14 20 C13.525625 19.360625 13.05125 18.72125 12.5625 18.0625 C11.10451493 15.6658903 11.10451493 15.6658903 7.90234375 15.37109375 C6.94457031 15.24863281 5.98679687 15.12617187 5 15 C4.59910156 15.6290625 4.19820313 16.258125 3.78515625 16.90625 C-0.60196936 23.51180874 -5.73332387 30.36666194 -13 34 C-12.89830839 36.94727535 -12.89830839 36.94727535 -12 40 C-9.53744315 41.45291273 -9.53744315 41.45291273 -7 42 C-6.875 44.875 -6.875 44.875 -7 48 C-7.66 48.66 -8.32 49.32 -9 50 C-12.625 49.625 -12.625 49.625 -16 49 C-17.12857143 44.48571429 -17.12857143 44.48571429 -16.4375 41.875 C-16.293125 41.25625 -16.14875 40.6375 -16 40 C-16.66 39.01 -17.32 38.02 -18 37 C-22.95 37.495 -22.95 37.495 -28 38 C-28 35.03 -28 32.06 -28 29 C-20.5 26 -20.5 26 -16 26 C-16 25.34 -16 24.68 -16 24 C-12.53846154 21 -12.53846154 21 -10 21 C-10.33 19.68 -10.66 18.36 -11 17 C-9.88625 16.7525 -9.88625 16.7525 -8.75 16.5 C-4.21263859 14.02507559 -2.88809117 9.67430843 -1.30859375 4.91796875 C-0.83424896 3.28927441 -0.41142852 1.64571408 0 0 Z " fill="#B5A364" transform="translate(341,528)"/>
<path d="M0 0 C2.97 0 5.94 0 9 0 C9.28875 1.36125 9.5775 2.7225 9.875 4.125 C10.69731147 7.84302258 11.71188034 11.41166665 13 15 C13.66 15 14.32 15 15 15 C15 15.66 15 16.32 15 17 C16.32 16.67 17.64 16.34 19 16 C19.061875 16.78375 19.12375 17.5675 19.1875 18.375 C19.73288333 21.21051624 19.73288333 21.21051624 22.375 22.3125 C25.03143 23.1266797 25.03143 23.1266797 28 23 C27.67 24.32 27.34 25.64 27 27 C31.95 27.99 31.95 27.99 37 29 C37 31.97 37 34.94 37 38 C33.37 37.34 29.74 36.68 26 36 C25.39788242 39.16111728 25.00046532 42.02419688 25.0625 45.25 C25 48 25 48 23 50 C20.12987704 50.36796448 18.59225382 50.37509409 16.125 48.8125 C15 47 15 47 15.1875 44.4375 C16 42 16 42 18 40 C18.99 40 19.98 40 21 40 C21.33 38.02 21.66 36.04 22 34 C20.845 33.38125 19.69 32.7625 18.5 32.125 C11.55800862 27.80937481 7.04251859 20.96557049 3 14 C-1.35535069 15.16142685 -3.64619703 16.07699505 -6 20 C-10.75 19.25 -10.75 19.25 -13 17 C-12.625 13.875 -12.625 13.875 -12 11 C-8.5275795 10.13189487 -6.41868609 10.11775843 -3 11 C-1.68 10.67 -0.36 10.34 1 10 C0.67 6.7 0.34 3.4 0 0 Z " fill="#B7A464" transform="translate(267,528)"/>
<path d="M0 0 C2.375 0.6875 2.375 0.6875 3.375 1.6875 C3.375 3.68500448 3.37144125 5.68305281 3.3125 7.6796875 C3.2855259 9.89667431 3.2855259 9.89667431 4.375 12.6875 C8.005 12.3575 11.635 12.0275 15.375 11.6875 C15.375 14.6575 15.375 17.6275 15.375 20.6875 C14.075625 21.05875 12.77625 21.43 11.4375 21.8125 C2.10120758 24.97833856 -4.32049443 30.39921004 -9.625 38.6875 C-9.955 39.6775 -10.285 40.6675 -10.625 41.6875 C-9.965 41.6875 -9.305 41.6875 -8.625 41.6875 C-8.625 42.6775 -8.625 43.6675 -8.625 44.6875 C-10.11 45.1825 -10.11 45.1825 -11.625 45.6875 C-12.83382096 47.68766466 -12.83382096 47.68766466 -13.625 49.6875 C-16.265 49.6875 -18.905 49.6875 -21.625 49.6875 C-21.625 46.3875 -21.625 43.0875 -21.625 39.6875 C-25.60696457 38.63345055 -28.60695309 38.84651344 -32.625 39.6875 C-34.24449011 37.11536866 -34.66908751 36.01080841 -34.25 32.9375 C-34.04375 32.195 -33.8375 31.4525 -33.625 30.6875 C-31.5 29.875 -31.5 29.875 -28.625 29.6875 C-25.625 32 -25.625 32 -24.1171875 33.40625 C-22.14822959 35.09687355 -20.07608265 35.89450267 -17.625 36.6875 C-17.41875 35.8625 -17.2125 35.0375 -17 34.1875 C-13.54373937 25.38974566 -7.46188927 20.64363551 0.375 15.6875 C-0.12 12.7175 -0.12 12.7175 -0.625 9.6875 C-1.553125 9.5328125 -1.553125 9.5328125 -2.5 9.375 C-4.625 8.6875 -4.625 8.6875 -6.625 5.6875 C-6.4375 3.625 -6.4375 3.625 -5.625 1.6875 C-2.625 -0.3125 -2.625 -0.3125 0 0 Z " fill="#B2A264" transform="translate(288.625,469.3125)"/>
<path d="M0 0 C1.56047445 0.00015913 3.12095416 0.00585397 4.68139648 0.01586914 C5.91115456 0.01799156 5.91115456 0.01799156 7.16575623 0.02015686 C9.79470406 0.0257725 12.42356797 0.0383276 15.05249023 0.05102539 C16.8304838 0.05603838 18.60847869 0.06060163 20.38647461 0.06469727 C24.75434569 0.07574701 29.12215371 0.09302208 33.48999023 0.11352539 C33.48999023 2.42352539 33.48999023 4.73352539 33.48999023 7.11352539 C28.53999023 7.11352539 23.58999023 7.11352539 18.48999023 7.11352539 C18.48999023 23.28352539 18.48999023 39.45352539 18.48999023 56.11352539 C16.17999023 56.11352539 13.86999023 56.11352539 11.48999023 56.11352539 C11.48999023 39.94352539 11.48999023 23.77352539 11.48999023 7.11352539 C6.20999023 7.11352539 0.92999023 7.11352539 -4.51000977 7.11352539 C-4.51000977 0.14586872 -4.51000977 0.14586872 0 0 Z " fill="#886834" transform="translate(1088.510009765625,495.886474609375)"/>
<path d="M0 0 C12.54 0 25.08 0 38 0 C38 2.31 38 4.62 38 7 C32.72 7 27.44 7 22 7 C22 23.17 22 39.34 22 56 C20.02 56 18.04 56 16 56 C16 39.83 16 23.66 16 7 C10.72 7 5.44 7 0 7 C0 4.69 0 2.38 0 0 Z " fill="#D3C982" transform="translate(674,496)"/>
<path d="M0 0 C2.93570303 1.46785152 3.29752415 3.51546799 4.6015625 6.49609375 C5.09140625 7.61177734 5.58125 8.72746094 6.0859375 9.87695312 C6.59382812 11.05193359 7.10171875 12.22691406 7.625 13.4375 C8.140625 14.60861328 8.65625 15.77972656 9.1875 16.98632812 C13 25.72582879 13 25.72582879 13 28 C4.75 28 -3.5 28 -12 28 C-11.34 26.35 -10.68 24.7 -10 23 C-9.63261719 22.01644531 -9.26523437 21.03289063 -8.88671875 20.01953125 C-6.30554502 13.11678326 -3.45386918 6.51091084 0 0 Z " fill="#068A8E" transform="translate(641,506)"/>
<path d="M0 0 C2.57076096 1.40977214 4.71998103 3.15296978 6.9375 5.0625 C6.61982368 10.46299736 3.73753673 12.58587065 -0.0625 16.0625 C-3.95325454 14.76558182 -6.58712743 13.39473231 -9.0625 10.0625 C-9.20980784 7.18999718 -8.67388903 5.76363421 -6.78515625 3.59765625 C-2.96645508 0.08989258 -2.96645508 0.08989258 0 0 Z " fill="#928853" transform="translate(271.0625,477.9375)"/>
<path d="M0 0 C3.53600465 1.91135386 5.78972846 3.62642766 8 7 C6.4404735 10.82792868 4.16368164 13.36359864 1 16 C-2.20133333 16.20008333 -3.32249555 14.73483699 -5.8125 12.6875 C-8 10 -8 10 -7.859375 8.03515625 C-6.8030442 5.53357286 -5.54824907 4.43859925 -3.4375 2.75 C-2.79683594 2.22921875 -2.15617187 1.7084375 -1.49609375 1.171875 C-1.00238281 0.78515625 -0.50867188 0.3984375 0 0 Z " fill="#99763D" transform="translate(347,553)"/>
<path d="M0 0 C3.79112259 1.62476682 5.84697002 4.08854863 8.625 7.125 C7.18254029 10.49073933 5.541532 12.87510389 2.625 15.125 C-1.01236196 15.21826569 -2.37464681 14.12527641 -5.25 11.875 C-7.375 9.125 -7.375 9.125 -7.4375 6.5625 C-5.82517947 2.86364702 -4.26870018 0.22466843 0 0 Z " fill="#8E7843" transform="translate(269.375,553.875)"/>
<path d="M0 0 C3.44982283 1.43041434 5.28397899 3.11382575 7.5625 6.0625 C7.64418495 9.41158277 6.79018128 10.75350397 4.8125 13.4375 C2.5625 15.0625 2.5625 15.0625 0.125 15.125 C-3.32482283 13.69458566 -5.15897899 12.01117425 -7.4375 9.0625 C-7.51918495 5.71341723 -6.66518128 4.37149603 -4.6875 1.6875 C-2.4375 0.0625 -2.4375 0.0625 0 0 Z " fill="#DECF85" transform="translate(346.4375,477.9375)"/>
<path d="M0 0 C0.33 0.66 0.66 1.32 1 2 C2.65 1.34 4.3 0.68 6 0 C5.9375 1.8125 5.9375 1.8125 5 4 C3.29066121 4.72318179 1.57807053 5.4405305 -0.15625 6.1015625 C-5.67598825 8.79126546 -7.9460615 14.59489868 -10 20 C-10.66 20 -11.32 20 -12 20 C-12.309375 19.05125 -12.61875 18.1025 -12.9375 17.125 C-13.87394742 14.13919592 -13.87394742 14.13919592 -15 12 C-14.34 12 -13.68 12 -13 12 C-12.91363281 11.25363281 -12.82726562 10.50726563 -12.73828125 9.73828125 C-11.85511166 6.4626099 -10.7456661 5.3659754 -8.1875 3.1875 C-7.50042969 2.58292969 -6.81335938 1.97835938 -6.10546875 1.35546875 C-4 0 -4 0 0 0 Z " fill="#108D8D" transform="translate(298,500)"/>
<path d="M0 0 C0.66 0 1.32 0 2 0 C2.33 1.65 2.66 3.3 3 5 C3.99 5 4.98 5 6 5 C6 6.32 6 7.64 6 9 C1.92857143 12 1.92857143 12 -1 12 C-1 11.01 -1 10.02 -1 9 C-1.639375 9.9075 -2.27875 10.815 -2.9375 11.75 C-6.1714949 15.67168348 -10.2482626 17.41297572 -15 19 C-15.66 19 -16.32 19 -17 19 C-17 18.34 -17 17.68 -17 17 C-15.730447 16.35165346 -14.45930294 15.70642185 -13.1875 15.0625 C-12.47980469 14.70285156 -11.77210938 14.34320312 -11.04296875 13.97265625 C-9 13 -9 13 -6 12 C-4.87998174 10.17765712 -4.87998174 10.17765712 -4 8 C-2.66666667 5.33333333 -1.33333333 2.66666667 0 0 Z " fill="#19908C" transform="translate(329,528)"/>
<path d="M0 0 C6.52467511 1.22337658 10.41314958 4.2655268 15 9 C15.99 10.485 15.99 10.485 17 12 C17 11.01 17 10.02 17 9 C17.66 9 18.32 9 19 9 C19 12.63 19 16.26 19 20 C18.01 20 17.02 20 16 20 C15.87625 19.41992188 15.7525 18.83984375 15.625 18.2421875 C14.0772516 12.38009042 12.05292823 9.51265146 7.0078125 6.15234375 C4.73806585 4.84966815 2.50076894 3.78149029 0 3 C0 2.01 0 1.02 0 0 Z " fill="#168F8D" transform="translate(312,500)"/>
<path d="M0 0 C9.59453303 2.89066059 9.59453303 2.89066059 13 6 C13 5.01 13 4.02 13 3 C14.32 3.33 15.64 3.66 17 4 C17 5.65 17 7.3 17 9 C17.66 9 18.32 9 19 9 C19.66 11.31 20.32 13.62 21 16 C19.5 14.6875 19.5 14.6875 18 13 C18 12.01 18 11.02 18 10 C17.34 11.32 16.68 12.64 16 14 C15.59910156 13.48050781 15.19820313 12.96101563 14.78515625 12.42578125 C10.45856282 7.11810088 6.18077666 3.91519625 0 1 C0 0.67 0 0.34 0 0 Z " fill="#B4BE82" transform="translate(313,499)"/>
<path d="M0 0 C0.66 0 1.32 0 2 0 C4 4 6 8 8 12 C6.25 12.75 6.25 12.75 4 13 C1.75 11.1875 1.75 11.1875 0 9 C0 8.34 0 7.68 0 7 C-0.99 7 -1.98 7 -3 7 C-3 5.02 -3 3.04 -3 1 C-2.34 1 -1.68 1 -1 1 C-0.67 1.33 -0.34 1.66 0 2 C0 1.34 0 0.68 0 0 Z " fill="#A0A26B" transform="translate(285,531)"/>
<path d="M0 0 C0.33 0.66 0.66 1.32 1 2 C0.67 2.66 0.34 3.32 0 4 C0.99 3.67 1.98 3.34 3 3 C2.34 4.65 1.68 6.3 1 8 C0.236875 7.979375 -0.52625 7.95875 -1.3125 7.9375 C-4.10185786 7.87057159 -4.10185786 7.87057159 -7 9 C-6.67 10.65 -6.34 12.3 -6 14 C-7.32 14 -8.64 14 -10 14 C-10.33 13.34 -10.66 12.68 -11 12 C-12.65 12.33 -14.3 12.66 -16 13 C-16 12.34 -16 11.68 -16 11 C-15.40832031 10.75765625 -14.81664062 10.5153125 -14.20703125 10.265625 C-8.30557369 7.7625598 -3.64940131 5.47410196 0 0 Z " fill="#A7B67E" transform="translate(328,536)"/>
<path d="M0 0 C2.94422416 0.30457491 3.85920226 0.83492679 5.8125 3.125 C7.36286882 6.87852452 7.01035767 9.10290612 6 13 C4.38966126 15.1224954 3.50955807 15.8958362 0.87890625 16.43359375 C-5.3929673 16.44417027 -5.3929673 16.44417027 -8.5625 14.125 C-10 12 -10 12 -10 10 C-9.34 10 -8.68 10 -8 10 C-7.01 11.485 -7.01 11.485 -6 13 C-2.4202048 13.91399027 -0.53525784 14.17841928 3 13 C4.36700394 7.20048909 4.36700394 7.20048909 2.0625 2 C1.381875 1.34 0.70125 0.68 0 0 Z " fill="#138F8E" transform="translate(310,516)"/>
<path d="M0 0 C0.66 0 1.32 0 2 0 C2.33 1.65 2.66 3.3 3 5 C3.99 5 4.98 5 6 5 C6 6.32 6 7.64 6 9 C1.92857143 12 1.92857143 12 -1 12 C-0.979375 10.88625 -0.95875 9.7725 -0.9375 8.625 C-0.73619282 5.16784079 -0.73619282 5.16784079 -2 3 C-1.34 2.01 -0.68 1.02 0 0 Z " fill="#659E7E" transform="translate(329,528)"/>
<path d="M0 0 C3.63559661 3.43361902 6.36113346 6.7973607 9 11 C5.47224511 10.69762101 3.96191135 9.97019149 1.125 7.75 C-1 5 -1 5 -0.8125 2.1875 C-0.544375 1.465625 -0.27625 0.74375 0 0 Z " fill="#A58A4E" transform="translate(340,482)"/>
<path d="M0 0 C3.56943715 0.30595176 5.03014419 1.02424641 7.875 3.3125 C8.57625 4.199375 9.2775 5.08625 10 6 C9.6328125 8.16796875 9.6328125 8.16796875 9 10 C7.49702124 8.52386015 5.99768715 7.04400843 4.5 5.5625 C3.6646875 4.73878906 2.829375 3.91507812 1.96875 3.06640625 C0 1 0 1 0 0 Z " fill="#A08247" transform="translate(344,478)"/>
<path d="M0 0 C1.32 0.66 2.64 1.32 4 2 C3.67 3.65 3.34 5.3 3 7 C1.35 6.67 -0.3 6.34 -2 6 C-1.125 1.125 -1.125 1.125 0 0 Z " fill="#1C847E" transform="translate(252,520)"/>
<path d="M0 0 C0.33 0 0.66 0 1 0 C1 1.65 1 3.3 1 5 C1.66 5 2.32 5 3 5 C3.66 7.31 4.32 9.62 5 12 C3.5 10.6875 3.5 10.6875 2 9 C2 8.01 2 7.02 2 6 C1.34 7.32 0.68 8.64 0 10 C-1.5625 7.625 -1.5625 7.625 -3 5 C-2.67 4.34 -2.34 3.68 -2 3 C-1.34 3 -0.68 3 0 3 C0 2.01 0 1.02 0 0 Z " fill="#8BA97B" transform="translate(329,503)"/>
<path d="M0 0 C1.65 0 3.3 0 5 0 C5 1.65 5 3.3 5 5 C3.125 5.625 3.125 5.625 1 6 C0.34 5.34 -0.32 4.68 -1 4 C-0.625 1.875 -0.625 1.875 0 0 Z " fill="#198580" transform="translate(361,521)"/>
<path d="M0 0 C0.99 0.33 1.98 0.66 3 1 C2.030625 1.556875 1.06125 2.11375 0.0625 2.6875 C-3.18991279 4.68035805 -3.18991279 4.68035805 -3.875 7.75 C-3.91625 8.4925 -3.9575 9.235 -4 10 C-4.99 10 -5.98 10 -7 10 C-6.84819155 7.34335221 -6.47988575 5.54782138 -4.703125 3.51953125 C-3.125 2.125 -3.125 2.125 0 0 Z " fill="#AEB57A" transform="translate(292,502)"/>
<path d="M0 0 C1.32 0 2.64 0 4 0 C4.33 0.66 4.66 1.32 5 2 C6.65 1.34 8.3 0.68 10 0 C9.67 1.32 9.34 2.64 9 4 C6.36 4 3.72 4 1 4 C1 3.34 1 2.68 1 2 C0.34 1.67 -0.32 1.34 -1 1 C-0.67 0.67 -0.34 0.34 0 0 Z " fill="#389B8C" transform="translate(294,500)"/>
<path d="M0 0 C0.99 0 1.98 0 3 0 C3.33 1.65 3.66 3.3 4 5 C0.25 6.125 0.25 6.125 -2 5 C-1.125 1.125 -1.125 1.125 0 0 Z " fill="#15918F" transform="translate(307,574)"/>
<path d="M0 0 C1 1.33333333 2 2.66666667 3 4 C3.556875 4.70125 4.11375 5.4025 4.6875 6.125 C6 8 6 8 6 10 C3.32388302 9.63088042 2.1568531 9.15144437 0.1875 7.25 C-1.31690887 4.3995411 -0.92250763 3.01911587 0 0 Z " fill="#6DA380" transform="translate(287,533)"/>
<path d="M0 0 C1.65 0.33 3.3 0.66 5 1 C4.67 2.32 4.34 3.64 4 5 C2.35 4.67 0.7 4.34 -1 4 C-0.67 2.68 -0.34 1.36 0 0 Z " fill="#0B8D8F" transform="translate(306,468)"/>
<path d="M0 0 C4.29238623 1.65091778 6.8793915 4.73754566 10 8 C9.67 8.66 9.34 9.32 9 10 C3.125 5.25 3.125 5.25 2 3 C1.01 2.34 0.02 1.68 -1 1 C-0.67 0.67 -0.34 0.34 0 0 Z " fill="#C8B570" transform="translate(343,479)"/>
<path d="M0 0 C0.66 0 1.32 0 2 0 C2 2.31 2 4.62 2 7 C1.01 7.495 1.01 7.495 0 8 C-1.125 5.6875 -1.125 5.6875 -2 3 C-1.34 2.01 -0.68 1.02 0 0 Z " fill="#4E9B84" transform="translate(329,528)"/>
<path d="M0 0 C0 0.66 0 1.32 0 2 C-2.31 2.66 -4.62 3.32 -7 4 C-7 3.34 -7 2.68 -7 2 C-4 0 -4 0 0 0 Z " fill="#0C8D8E" transform="translate(319,543)"/>
<path d="M0 0 C0.99 0 1.98 0 3 0 C3 1.65 3 3.3 3 5 C1.68 4.67 0.36 4.34 -1 4 C-0.67 2.68 -0.34 1.36 0 0 Z " fill="#1B8681" transform="translate(345,559)"/>
<path d="M0 0 C1.32 0 2.64 0 4 0 C3.67 1.65 3.34 3.3 3 5 C2.01 4.67 1.02 4.34 0 4 C0 2.68 0 1.36 0 0 Z " fill="#20837B" transform="translate(257,541)"/>
<path d="M0 0 C1.32 0.33 2.64 0.66 4 1 C3.67 2.32 3.34 3.64 3 5 C2.01 4.67 1.02 4.34 0 4 C0 2.68 0 1.36 0 0 Z " fill="#1A837E" transform="translate(356,541)"/>
<path d="M0 0 C0.66 0 1.32 0 2 0 C1.75 1.875 1.75 1.875 1 4 C-1.0625 5.25 -1.0625 5.25 -3 6 C-3 5.01 -3 4.02 -3 3 C-2.34 3 -1.68 3 -1 3 C-0.67 2.01 -0.34 1.02 0 0 Z " fill="#2D998F" transform="translate(314,526)"/>
</svg>
